<?xml version="1.0" standalone="no"?>
<!DOCTYPE svg PUBLIC "-//W3C//DTD SVG 20010904//EN"
 "http://www.w3.org/TR/2001/REC-SVG-20010904/DTD/svg10.dtd">
<svg version="1.0" xmlns="http://www.w3.org/2000/svg"
 width="455.000000pt" height="476.000000pt" viewBox="0 0 455.000000 476.000000"
 preserveAspectRatio="xMidYMid meet">

<g transform="translate(0.000000,476.000000) scale(0.100000,-0.100000)"
fill="#000000" stroke="none">
<path d="M3714 3114 c-82 -47 -162 -94 -179 -103 -29 -17 -196 -115 -260 -151
-236 -136 -1030 -595 -1061 -614 -23 -13 -54 -41 -70 -62 l-29 -37 -5 -986
c-3 -579 -1 -1002 4 -1025 12 -52 72 -112 128 -127 56 -15 131 1 184 40 38 27
360 215 1194 696 217 125 410 241 427 258 58 55 71 146 32 217 -53 95 -164
124 -259 68 -19 -11 -312 -180 -650 -375 -338 -196 -630 -364 -647 -375 l-33
-20 0 259 0 259 228 131 c125 72 466 268 757 436 292 168 544 317 561 331 119
98 67 294 -86 322 -54 11 -104 -8 -250 -94 -287 -168 -1181 -683 -1195 -688
-13 -5 -15 29 -15 249 l0 255 43 25 c23 14 58 34 77 44 19 11 94 54 165 95 72
42 384 222 695 402 348 201 575 338 592 357 34 40 50 102 39 152 -22 94 -88
147 -184 147 -49 0 -66 -7 -203 -86z"/>
</g>
</svg>
