<?xml version="1.0" encoding="UTF-8"?>
<svg version="1.1" xmlns="http://www.w3.org/2000/svg" width="455" height="476">
<path d="M0 0 C6.33355638 3.3140934 12.52751566 6.82458698 18.68041992 10.46264648 C20.80506647 11.71064424 22.93007928 12.95801863 25.05541992 14.20483398 C26.1459668 14.84517578 27.23651367 15.48551758 28.36010742 16.14526367 C33.78513048 19.31890216 39.23290622 22.45282209 44.68041992 25.58764648 C53.09436118 30.43213184 61.48909475 35.30770189 69.86791992 40.21264648 C77.6020734 44.73773366 85.37057645 49.19452628 93.18041992 53.58764648 C101.99402309 58.54539222 110.74702251 63.59859744 119.47363281 68.70776367 C125.88881132 72.46273642 132.31724351 76.19350459 138.75878906 79.90307617 C142.04822576 81.79750865 145.33516284 83.69622013 148.62182617 85.59545898 C152.39166657 87.77285147 156.1694386 89.93478659 159.95776367 92.07983398 C161.49042148 92.9572535 163.02298162 93.83484366 164.55541992 94.71264648 C165.2327417 95.09001953 165.91006348 95.46739258 166.60791016 95.85620117 C171.69677498 98.79211018 175.66788697 102.46889965 177.68041992 108.08764648 C177.98120117 111.54858398 177.98120117 111.54858398 177.99291992 115.46264648 C178.00967773 116.74913086 178.02643555 118.03561523 178.04370117 119.36108398 C177.39310555 126.03493586 174.45114617 129.98601746 169.45776367 134.13061523 C164.52272686 137.60804624 159.1968748 140.37394309 153.89135742 143.23999023 C148.2892901 146.27399808 142.79753241 149.484945 137.30541992 152.71264648 C128.463563 157.89671141 119.58627544 163.01467535 110.68041992 168.08764648 C101.98623251 173.04112853 93.31538873 178.03134122 84.68041992 183.08764648 C76.04544261 188.14395673 67.37429681 193.13361034 58.68041992 198.08764648 C49.46845041 203.33784662 40.27769077 208.62176975 31.11791992 213.96264648 C30.10665039 214.55174805 29.09538086 215.14084961 28.0534668 215.74780273 C24.54309093 217.79897309 21.06407612 219.83187568 17.68041992 222.08764648 C17.24310595 224.22344631 17.24310595 224.22344631 17.33984375 226.72094727 C17.34018364 228.16221481 17.34018364 228.16221481 17.3405304 229.63259888 C17.36375618 231.19202713 17.36375618 231.19202713 17.38745117 232.78295898 C17.39169601 233.84553925 17.39594086 234.90811951 17.40031433 236.00289917 C17.41714603 239.40640294 17.45480689 242.80932081 17.49291992 246.21264648 C17.50796093 248.51602337 17.52165035 250.8194095 17.53393555 253.12280273 C17.56706418 258.77795154 17.61730796 264.43275716 17.68041992 270.08764648 C18.33656281 269.70398422 18.99270569 269.32032196 19.66873169 268.92503357 C34.54931242 260.22507701 49.4618221 251.58258871 64.39819336 242.97875977 C69.82701935 239.850845 75.25361273 236.71906201 80.68041992 233.58764648 C82.84707575 232.33762769 85.01374242 231.0876277 87.18041992 229.83764648 C88.25291992 229.21889648 89.32541992 228.60014648 90.43041992 227.96264648 C95.30541992 225.15014648 95.30541992 225.15014648 100.18041992 222.33764648 C101.25428955 221.71801025 102.32815918 221.09837402 103.43457031 220.45996094 C105.58706602 219.21832953 107.73989463 217.97727505 109.89306641 216.73681641 C114.93187019 213.83300187 119.96730888 210.92382395 124.9906311 207.99331665 C126.76334654 206.95951765 128.53714493 205.92760195 130.3112793 204.89624023 C132.53219913 203.60439045 134.75109061 202.30904459 136.9675293 201.00952148 C155.10405297 190.47714334 155.10405297 190.47714334 162.68041992 192.08764648 C169.13692599 194.38307602 173.58332302 196.89345268 176.68041992 203.08764648 C178.51503755 208.59149936 178.63632154 214.77875628 177.02026367 220.37280273 C173.80037062 226.53100124 167.84301187 229.51306378 161.99291992 232.78686523 C159.30163121 234.30071513 156.6316605 235.8490423 153.96166992 237.40014648 C148.94470434 240.3115121 143.91906401 243.2073664 138.88874817 246.09559631 C132.81407688 249.58389599 126.74711074 253.08549252 120.68041992 256.58764648 C114.1581611 260.35141364 107.63528219 264.11409277 101.11010742 267.87280273 C90.658358 273.89511973 80.21741699 279.93432713 69.80541992 286.02514648 C59.7321334 291.91681449 49.61076379 297.7212058 39.4699707 303.49560547 C37.26805652 304.74995216 35.07951144 306.02810221 32.90600586 307.33105469 C29.68041992 309.08764648 29.68041992 309.08764648 26.21264648 310.25634766 C22.30290303 311.76268781 20.3147874 312.79468714 17.68041992 316.08764648 C15.65098611 323.97971586 16.5628119 332.47187198 16.93041992 340.52514648 C16.99064076 342.80560604 17.0453888 345.08621713 17.09448242 347.36694336 C17.22645145 352.94382501 17.42693006 358.51503685 17.68041992 364.08764648 C34.63345518 354.41800961 51.56406895 344.71112627 68.46264648 334.9465332 C73.86712638 331.82440043 79.27389404 328.70623444 84.68041992 325.58764648 C86.84709743 324.33766527 89.0137641 323.08766527 91.18041992 321.83764648 C95.51375326 319.33764648 99.84708659 316.83764648 104.18041992 314.33764648 C105.25485352 313.71776855 106.32928711 313.09789062 107.4362793 312.45922852 C109.58337128 311.22054646 111.73050606 309.98193858 113.87768555 308.7434082 C118.97630801 305.80231299 124.07447288 302.86043235 129.17114258 299.91595459 C131.59089657 298.51806048 134.01089255 297.12058559 136.4309082 295.72314453 C138.14843044 294.73112324 139.86560044 293.73849219 141.58276367 292.74584961 C143.13157227 291.8515625 143.13157227 291.8515625 144.71166992 290.93920898 C145.6249707 290.41149902 146.53827148 289.88378906 147.47924805 289.34008789 C153.00327159 286.19698222 158.41416943 286.68213821 164.68041992 287.08764648 C170.13697167 288.77421702 173.46983758 292.48616039 176.68041992 297.08764648 C178.51142952 302.58067528 178.75711628 308.92058352 176.87963867 314.44311523 C171.78438865 323.49550102 160.41788416 328.0755303 151.74291992 333.02514648 C150.01307432 334.01756787 148.28323149 335.00999413 146.55355835 336.00271606 C144.77102121 337.02528739 142.98773795 338.04654783 141.2043457 339.06762695 C135.68852224 342.22734549 130.18518425 345.40871516 124.68041992 348.58764648 C122.51642539 349.83646219 120.35236269 351.08515978 118.18823242 352.33374023 C117.11605469 352.9523291 116.04387695 353.57091797 114.93920898 354.20825195 C111.66342427 356.09744814 108.386861 357.98528757 105.11010742 359.87280273 C94.65835793 365.89511977 84.21742444 371.93433986 73.80541992 378.02514648 C65.12778936 383.10040248 56.41405685 388.10968577 47.68041992 393.08764648 C38.4944462 398.32548305 29.32249331 403.58589722 20.18041992 408.90014648 C19.1775293 409.48086914 18.17463867 410.0615918 17.14135742 410.65991211 C16.21581055 411.19938477 15.29026367 411.73885742 14.33666992 412.29467773 C13.53036133 412.76365479 12.72405273 413.23263184 11.89331055 413.71582031 C9.64943037 415.05642027 9.64943037 415.05642027 7.5769043 416.69970703 C2.75659697 420.22744224 -3.61321359 419.93098013 -9.34155273 419.42114258 C-15.86166411 418.32184955 -21.69713991 414.37264155 -27.31958008 411.08764648 C-28.17777344 410.59425781 -29.0359668 410.10086914 -29.92016602 409.5925293 C-34.89141855 406.73401522 -39.84176794 403.84176638 -44.78051758 400.92749023 C-51.54964487 396.9390885 -58.36776034 393.03854139 -65.19458008 389.15014648 C-67.56463064 387.79903765 -69.93437645 386.44739531 -72.30395508 385.09545898 C-72.8891391 384.7616069 -73.47432312 384.42775482 -74.07723999 384.08378601 C-83.43887089 378.73968564 -92.76839582 373.33970659 -102.10180664 367.9465332 C-106.42205651 365.45075304 -110.74380995 362.95758351 -115.06567383 360.46459961 C-118.31454503 358.59055085 -121.5631564 356.7160522 -124.81176758 354.84155273 C-130.26522591 351.69520069 -135.72048427 348.55198304 -141.17626953 345.40966797 C-144.40961036 343.54531017 -147.6400543 341.67600463 -150.87036133 339.80639648 C-155.27107698 337.2614043 -159.6867387 334.74497167 -164.11254883 332.24389648 C-166.28577791 331.00440431 -168.45895688 329.76482428 -170.63208008 328.52514648 C-171.6344873 327.96561279 -172.63689453 327.4060791 -173.66967773 326.82958984 C-179.01252625 323.76486103 -182.84830723 321.20287368 -186.31958008 316.08764648 C-186.95366995 315.29569728 -186.95366995 315.29569728 -187.60056973 314.4877491 C-193.14013178 306.50380992 -192.01257472 297.11042138 -191.95068359 287.81762695 C-191.95582654 285.85723219 -191.96311064 283.89684206 -191.97236633 281.9364624 C-191.99083813 276.6307343 -191.97796923 271.32551046 -191.95827603 266.01980352 C-191.94185808 260.46039107 -191.9507066 254.90100976 -191.95579529 249.34158325 C-191.96031196 240.00897185 -191.94447086 230.67656116 -191.91650391 221.34399414 C-191.88443527 210.55964684 -191.88447648 199.7756611 -191.90171868 188.99128807 C-191.91758883 178.60672661 -191.91084823 168.22229752 -191.89378166 157.83774185 C-191.88691546 153.42241002 -191.88793917 149.00718442 -191.89532661 144.5918541 C-191.9029947 139.39275855 -191.89084595 134.19407401 -191.86347771 128.99504852 C-191.85659905 127.08872574 -191.85649033 125.18236453 -191.86369324 123.27604294 C-191.8724019 120.67078512 -191.85640872 118.06679169 -191.83424377 115.4616394 C-191.84248454 114.70997871 -191.85072531 113.95831802 -191.8592158 113.18387973 C-191.75321167 106.41867069 -189.49421329 102.24271777 -184.71411133 97.50561523 C-180.48291059 94.25705955 -175.71191784 91.87964633 -171.00708008 89.40014648 C-164.29312727 85.80007868 -157.61597842 82.17262822 -151.06958008 78.27514648 C-144.03892187 74.09392555 -136.97033595 69.98305294 -129.88208008 65.90014648 C-128.77509766 65.26230225 -127.66811523 64.62445801 -126.52758789 63.96728516 C-124.25670734 62.65906049 -121.98571023 61.35103812 -119.71459961 60.04321289 C-114.24788033 56.89432598 -108.78380362 53.74086158 -103.31958008 50.58764648 C-96.79725569 46.82399283 -90.27444244 43.06120026 -83.74926758 39.30249023 C-74.1948991 33.7971612 -64.64491218 28.28559657 -55.12792969 22.71582031 C-45.99271428 17.36988421 -36.83559818 12.065274 -27.63208008 6.83764648 C-26.66955322 6.28834473 -25.70702637 5.73904297 -24.71533203 5.1730957 C-23.36894653 4.41150146 -23.36894653 4.41150146 -21.99536133 3.63452148 C-20.81840698 2.96694824 -20.81840698 2.96694824 -19.61767578 2.28588867 C-13.28374642 -1.01666368 -6.91518817 -2.71993034 0 0 Z M-15.88208008 45.21264648 C-17.07897461 45.87937378 -17.07897461 45.87937378 -18.30004883 46.55957031 C-26.92633365 51.38959734 -35.45264533 56.38885627 -43.98364258 61.38452148 C-50.37239999 65.12399238 -56.78074084 68.82889683 -63.19458008 72.52514648 C-64.81396484 73.45846802 -64.81396484 73.45846802 -66.46606445 74.41064453 C-68.65640528 75.67276165 -70.8468351 76.93472433 -73.03735352 78.1965332 C-79.53664302 81.94121458 -86.0331488 85.69072475 -92.52954102 89.44042969 C-97.56958437 92.34911713 -102.61059753 95.25607495 -107.65557861 98.15618896 C-109.43707586 99.18040313 -111.2182233 100.205223 -112.99926758 101.23022461 C-115.23034633 102.51398024 -117.46207581 103.79660587 -119.69458008 105.07788086 C-125.30823373 108.30965984 -130.85249446 111.61335946 -136.31958008 115.08764648 C-132.71822769 118.11261518 -129.04308351 120.52231901 -124.95239258 122.83764648 C-124.35457977 123.17763672 -123.75676697 123.51762695 -123.14083862 123.86791992 C-121.24437995 124.94526846 -119.34458529 126.01656748 -117.44458008 127.08764648 C-116.17742428 127.80599318 -114.91049514 128.52473987 -113.64379883 129.24389648 C-111.29899226 130.57451283 -108.95268337 131.90232542 -106.60522461 133.22827148 C-104.89996216 134.19329443 -103.19717855 135.16824792 -101.56072998 136.24584961 C-98.61887501 138.12702343 -96.7457733 139.09750648 -93.21704102 139.01586914 C-90.17976257 138.04285493 -87.70494024 136.85923452 -84.96020508 135.23608398 C-83.94055664 134.63989258 -82.9209082 134.04370117 -81.87036133 133.42944336 C-80.78110352 132.78040039 -79.6918457 132.13135742 -78.56958008 131.46264648 C-77.41260656 130.7826247 -76.25504295 130.10360602 -75.09692383 129.42553711 C-72.6929286 128.01697324 -70.29152235 126.60414007 -67.8918457 125.18823242 C-62.39123128 121.9474767 -56.85354599 118.77098326 -51.31958008 115.58764648 C-49.15273974 114.33794756 -46.98607358 113.08794659 -44.81958008 111.83764648 C-40.48624674 109.33764648 -36.15291341 106.83764648 -31.81958008 104.33764648 C-30.74667725 103.71865479 -29.67377441 103.09966309 -28.56835938 102.46191406 C-26.40579425 101.21429909 -24.24319669 99.96674032 -22.08056641 98.71923828 C-16.60087637 95.55821199 -11.1217865 92.39615339 -5.64379883 89.23217773 C7.77748607 81.48187213 21.21542551 73.76178204 34.68041992 66.08764648 C31.32329479 63.28300302 27.97370524 60.99185695 24.14526367 58.88061523 C23.08758789 58.29344727 22.02991211 57.7062793 20.94018555 57.10131836 C19.84383789 56.49868164 18.74749023 55.89604492 17.61791992 55.27514648 C15.45975812 54.08223848 13.30220434 52.88822979 11.14526367 51.69311523 C9.55367432 50.81212158 9.55367432 50.81212158 7.92993164 49.91333008 C3.56498795 47.46095976 -0.74637635 44.92142017 -5.05175781 42.36621094 C-9.261672 39.99272395 -12.01129771 43.05137738 -15.88208008 45.21264648 Z M67.71166992 90.84155273 C66.67913086 91.4409668 65.6465918 92.04038086 64.58276367 92.65795898 C62.89860352 93.6440918 62.89860352 93.6440918 61.18041992 94.65014648 C60.00490398 95.33419637 58.82911845 96.01778315 57.65307617 96.70092773 C55.20671066 98.12246781 52.76152529 99.54600731 50.31713867 100.97094727 C44.78236999 104.19521802 39.2306066 107.39001679 33.68041992 110.58764648 C31.51367182 111.83750532 29.34700544 113.08750584 27.18041992 114.33764648 C14.18041992 121.83764648 14.18041992 121.83764648 10.92993164 123.71289062 C8.76484922 124.96200167 6.5998101 126.21118778 4.43481445 127.46044922 C-1.00573714 130.59966958 -6.44705224 133.73755211 -11.88989258 136.87280273 C-26.39449231 145.23023548 -40.86916141 153.63689033 -55.31958008 162.08764648 C-52.29735115 164.45548205 -49.17062137 166.40510504 -45.83911133 168.31030273 C-44.76483887 168.92711914 -43.69056641 169.54393555 -42.58374023 170.17944336 C-40.87516846 171.15494141 -40.87516846 171.15494141 -39.13208008 172.15014648 C-36.78101597 173.49379846 -34.43075145 174.83883495 -32.08129883 176.18530273 C-31.5007373 176.51785065 -30.92017578 176.85039856 -30.32202148 177.19302368 C-26.84017229 179.19394292 -23.39037608 181.23921587 -19.96411133 183.33374023 C-18.80141724 184.0403479 -18.80141724 184.0403479 -17.61523438 184.76123047 C-16.20288332 185.62427212 -14.79640159 186.4970183 -13.39697266 187.38085938 C-10.15994433 189.50294644 -10.15994433 189.50294644 -6.44873047 189.86083984 C-3.81575756 188.90468514 -1.49906984 187.65527145 0.94213867 186.27905273 C1.96944092 185.70227783 2.99674316 185.12550293 4.05517578 184.53125 C5.14838135 183.91048584 6.24158691 183.28972168 7.36791992 182.65014648 C9.06476929 181.69289673 9.06476929 181.69289673 10.79589844 180.71630859 C17.60050374 176.8669015 24.37127389 172.96531779 31.09545898 168.97729492 C37.40738286 165.23456117 43.75974055 161.56366666 50.11791992 157.90014648 C51.22514404 157.26214111 52.33236816 156.62413574 53.47314453 155.96679688 C55.7437906 154.65875172 58.0145435 153.35089201 60.28540039 152.04321289 C66.82067064 148.27882955 73.35267351 144.50877784 79.88427734 140.73803711 C84.94275866 137.81830978 90.00263834 134.90110145 95.06799316 131.99331665 C97.44965494 130.62589882 99.83045012 129.2569761 102.21118164 127.88793945 C103.88368013 126.92700095 105.55742328 125.96822977 107.23120117 125.00952148 C112.15655143 122.17635541 117.01304953 119.33066419 121.68041992 116.08764648 C118.65819099 113.71981092 115.53146121 111.77018793 112.19995117 109.86499023 C111.12551758 109.24825439 110.05108398 108.63151855 108.9440918 107.99609375 C107.80520508 107.34568115 106.66631836 106.69526855 105.49291992 106.02514648 C103.14450241 104.68011773 100.79708041 103.33335936 98.44995117 101.98608398 C97.86980255 101.65332962 97.28965393 101.32057526 96.69192505 100.97773743 C90.94952603 97.67872579 85.25032966 94.30704483 79.58203125 90.88232422 C74.21152633 87.67822403 73.0355505 87.7348599 67.71166992 90.84155273 Z M-153.31958008 151.08764648 C-153.31958008 197.94764648 -153.31958008 244.80764648 -153.31958008 293.08764648 C-145.72958008 297.37764648 -138.13958008 301.66764648 -130.31958008 306.08764648 C-126.37434401 308.36815683 -122.43460304 310.65257929 -118.50708008 312.96264648 C-106.90142866 319.75865366 -95.25563317 326.48355531 -83.60180664 333.1965332 C-79.25360685 335.70182594 -74.90686424 338.2096397 -70.56030273 340.71777344 C-68.41171277 341.95749398 -66.26295163 343.19691792 -64.11401367 344.43603516 C-59.05091036 347.35575551 -53.98915396 350.27774016 -48.93200684 353.20776367 C-46.55145835 354.58682679 -44.17016701 355.96460433 -41.78881836 357.34228516 C-40.11475358 358.31149307 -38.44176096 359.28255214 -36.76879883 360.25366211 C-35.23932617 361.13828125 -35.23932617 361.13828125 -33.67895508 362.04077148 C-32.78660156 362.55800781 -31.89424805 363.07524414 -30.97485352 363.6081543 C-28.13705272 365.18934893 -25.22520082 366.63483612 -22.31958008 368.08764648 C-22.31958008 321.22764648 -22.31958008 274.36764648 -22.31958008 226.08764648 C-29.24958008 222.12764648 -36.17958008 218.16764648 -43.31958008 214.08764648 C-47.17819714 211.84454195 -51.03352743 209.59770741 -54.88208008 207.33764648 C-63.62290139 202.22217322 -72.396822 197.16689965 -81.19458008 192.15014648 C-90.29038573 186.96323047 -99.37661385 181.76067854 -108.44458008 176.52514648 C-109.49468262 175.91904541 -110.54478516 175.31294434 -111.62670898 174.68847656 C-116.6525197 171.78648115 -121.67658264 168.8814957 -126.6980896 165.97206116 C-129.08096368 164.59178096 -131.46459908 163.21281877 -133.84832764 161.83401489 C-135.52326507 160.8644565 -137.1970738 159.89294908 -138.87084961 158.92138672 C-139.89033691 158.33172119 -140.90982422 157.74205566 -141.96020508 157.13452148 C-142.85255859 156.61728516 -143.74491211 156.10004883 -144.66430664 155.56713867 C-147.50210744 153.98594404 -150.41395934 152.54045685 -153.31958008 151.08764648 Z " fill="#3B7D23" transform="translate(233.319580078125,56.912353515625)"/>
<path d="M0 0 C4.32298957 1.99840096 8.45469713 4.32723777 12.5859375 6.69140625 C13.45911621 7.1901123 14.33229492 7.68881836 15.23193359 8.20263672 C21.30517091 11.69043735 27.3399801 15.24177672 33.37109375 18.80175781 C38.71566901 21.94323811 44.0882852 25.03576931 49.4609375 28.12890625 C51.64583451 29.38801879 53.83073034 30.64713338 56.015625 31.90625 C57.10069336 32.53128418 58.18576172 33.15631836 59.30371094 33.80029297 C64.73253692 36.92820773 70.15913031 40.05999073 75.5859375 43.19140625 C77.75259333 44.44142504 79.91926 45.69142503 82.0859375 46.94140625 C103.75260417 59.44140625 125.41927083 71.94140625 147.0859375 84.44140625 C148.15956543 85.06080078 149.23319336 85.68019531 150.33935547 86.31835938 C152.49465061 87.56181135 154.64992423 88.80530061 156.80517578 90.04882812 C161.80931424 92.936035 166.8136427 95.82291055 171.81878662 98.70837402 C173.56934991 99.71759729 175.31984161 100.72694461 177.0703125 101.73632812 C179.24985915 102.99308285 181.42953582 104.24961211 183.609375 105.50585938 C189.69066174 109.01278697 195.75575915 112.5449607 201.80126953 116.11328125 C203.77466092 117.23164018 205.78635779 118.28359789 207.82055664 119.28710938 C210.55170224 120.67402114 211.98699874 121.84203677 213.8984375 124.19140625 C214.38957031 124.77921875 214.88070313 125.36703125 215.38671875 125.97265625 C218.32427231 130.18283073 217.73412568 134.90689904 217.73310852 139.81268311 C217.73678521 140.75769157 217.7404619 141.70270003 217.74425 142.67634511 C217.7553017 145.85682666 217.75913319 149.03727555 217.76293945 152.21777344 C217.76920294 154.4925446 217.77584963 156.76731473 217.78285217 159.04208374 C217.80027154 165.23225777 217.81081632 171.42242407 217.8190577 177.61261654 C217.82420547 181.47831037 217.83028128 185.34400178 217.83656883 189.20969391 C217.85343888 199.91387567 217.86807407 210.61805402 217.87531757 221.32224655 C217.87722744 224.09959667 217.87914778 226.87694679 217.88110352 229.65429688 C217.88158726 230.34458682 217.882071 231.03487677 217.8825694 231.7460846 C217.8908697 242.92830692 217.91620711 254.11042226 217.94868419 265.29259786 C217.98176061 276.77479173 217.99943409 288.2569058 218.00296181 299.73915219 C218.00531493 306.18535203 218.01430971 312.63138277 218.03942299 319.07753754 C218.06266576 325.14157358 218.06695206 331.20532873 218.05666161 337.26939774 C218.05616523 339.49502368 218.06251553 341.72066328 218.07621765 343.9462471 C218.0938807 346.9852343 218.08685744 350.0232073 218.07368469 353.06219482 C218.09013856 354.38259046 218.09013856 354.38259046 218.10692483 355.72966075 C218.0386596 362.25503451 216.49202158 366.52242459 211.98828125 371.43359375 C205.72196939 376.27954159 200.28728721 376.23346672 192.5859375 375.69140625 C187.13345552 373.97488414 183.7981366 370.29520952 180.5859375 365.69140625 C179.30399107 361.84556697 179.43247747 358.21464859 179.42771912 354.20637512 C179.42278114 353.32993164 179.41784316 352.45348816 179.41275555 351.55048579 C179.39735059 348.60242542 179.3890118 345.65438688 179.38061523 342.70629883 C179.37103907 340.59750678 179.36102914 338.48871667 179.35061646 336.37992859 C179.323533 330.64476428 179.30254207 324.9095917 179.28261447 319.17439866 C179.26077612 313.18458433 179.23337692 307.19479556 179.20655823 301.20500183 C179.15660221 289.85783978 179.11167418 278.51066358 179.06853586 267.16347378 C179.01918833 254.24706718 178.964261 241.3306862 178.90885627 228.41430438 C178.79499157 201.84002891 178.68816231 175.26572886 178.5859375 148.69140625 C178.0722077 148.40668268 177.5584779 148.12195911 177.02918053 147.82860756 C174.67328912 146.52250676 172.31784292 145.21560504 169.96240234 143.90869141 C169.15435654 143.46086807 168.34631073 143.01304474 167.51377869 142.551651 C161.36372004 139.1382073 155.27027792 135.6385065 149.2109375 132.06640625 C140.36972706 126.88124902 131.49178188 121.76437103 122.5859375 116.69140625 C112.91093387 111.17910769 103.2731116 105.60715793 93.6640625 99.98046875 C86.0001998 95.49974479 78.29914915 91.08633873 70.5859375 86.69140625 C60.91996793 81.18380636 51.290617 75.61754446 41.69042969 69.99584961 C32.62190358 64.69379676 23.50348952 59.48108458 14.375 54.28320312 C12.72371094 53.34250977 12.72371094 53.34250977 11.0390625 52.3828125 C9.96720703 51.77840332 8.89535156 51.17399414 7.79101562 50.55126953 C5.59980704 49.27974097 3.43747173 47.95747445 1.30273438 46.59326172 C0.25666016 45.93342285 -0.78941406 45.27358398 -1.8671875 44.59375 C-2.79176758 43.98909912 -3.71634766 43.38444824 -4.66894531 42.76147461 C-7.41148861 41.4039059 -7.41148861 41.4039059 -10.42578125 42.32568359 C-13.30940445 43.64357479 -16.03761201 45.03879868 -18.7734375 46.640625 C-20.30291016 47.53007813 -20.30291016 47.53007813 -21.86328125 48.4375 C-22.95253906 49.07816406 -24.04179687 49.71882813 -25.1640625 50.37890625 C-26.32127222 51.05397264 -27.47883107 51.72844087 -28.63671875 52.40234375 C-31.03976832 53.8015643 -33.4413017 55.2033356 -35.84179688 56.60693359 C-41.35193095 59.82590009 -46.88416608 63.00655654 -52.4140625 66.19140625 C-54.57821714 67.43994446 -56.74227934 68.68864293 -58.90625 69.9375 C-63.26471638 72.45210061 -67.62418441 74.96495286 -71.984375 77.4765625 C-82.43612529 83.49888 -92.87699365 89.53820882 -103.2890625 95.62890625 C-113.10544708 101.36894046 -122.96871744 107.02463962 -132.84667969 112.65771484 C-140.75628656 117.16885564 -148.65328404 121.7011811 -156.5390625 126.25390625 C-158.11312866 127.16197021 -158.11312866 127.16197021 -159.71899414 128.08837891 C-164.75636379 130.99590586 -169.79066973 133.90855079 -174.81835938 136.83277893 C-177.21048037 138.22357902 -179.6040361 139.61189885 -181.9977417 140.99996948 C-183.68432798 141.97938041 -185.36880384 142.96242272 -187.05322266 143.94555664 C-188.5872876 144.83488892 -188.5872876 144.83488892 -190.15234375 145.7421875 C-191.04993408 146.26466064 -191.94752441 146.78713379 -192.87231445 147.32543945 C-195.33803243 148.65054675 -197.80974633 149.6739629 -200.4140625 150.69140625 C-200.40945354 151.78177689 -200.40484457 152.87214752 -200.40009594 153.99555969 C-200.28909398 180.52770981 -200.20693177 207.05982981 -200.15500164 233.59216309 C-200.12922105 246.4230169 -200.09407297 259.25371731 -200.03686523 272.08447266 C-199.98702622 283.26787576 -199.95477044 294.45116777 -199.94362003 305.63467884 C-199.93710221 311.55620387 -199.92178588 317.47741107 -199.88541222 323.39883423 C-199.85144527 328.97368685 -199.84101116 334.54809106 -199.84852409 340.12303734 C-199.84714988 342.16764959 -199.83722183 344.21227701 -199.81803513 346.2567997 C-199.79308615 349.05276966 -199.79916401 351.84705591 -199.81278992 354.64306641 C-199.79094361 355.85127029 -199.79094361 355.85127029 -199.76865596 357.08388233 C-199.84688336 363.03932693 -201.65309278 367.07540761 -205.4140625 371.69140625 C-210.71765856 376.11106963 -215.50814709 376.31639397 -222.3203125 376.06640625 C-227.40346938 375.45026602 -230.41240329 374.11191546 -233.77845991 370.04150677 C-237.46172607 364.60489673 -238.13098522 360.38233107 -238.04898071 353.8996582 C-238.05678067 352.94291608 -238.06458062 351.98617395 -238.07261693 351.00043964 C-238.09248478 347.80979167 -238.07679227 344.62034332 -238.06103516 341.4296875 C-238.06781356 339.13609117 -238.07671793 336.84250028 -238.08758545 334.54891968 C-238.11035849 328.32991031 -238.10155032 322.11131618 -238.08569002 315.89229965 C-238.0730209 309.3804183 -238.08477397 302.86857222 -238.09262085 296.35668945 C-238.10229669 284.721456 -238.08676981 273.08641185 -238.06132416 261.45120823 C-238.03898663 250.9110636 -238.04286717 240.37119435 -238.06591797 229.83105469 C-238.09270216 217.57813502 -238.10262157 205.32541135 -238.08785665 193.07246304 C-238.08006617 186.5910983 -238.07900977 180.10992308 -238.09553909 173.62857056 C-238.10999472 167.53480802 -238.0999412 161.44156492 -238.07106781 155.34785843 C-238.06446298 153.1129912 -238.06634429 150.87808017 -238.07738113 148.64323044 C-238.09107129 145.58928391 -238.07387751 142.53699554 -238.04898071 139.4831543 C-238.06013432 138.60143209 -238.07128793 137.71970987 -238.08277953 136.81126881 C-237.986849 130.73329431 -236.50363384 126.2914677 -232.4140625 121.69140625 C-228.99237665 119.39286142 -225.52889993 118.0392177 -221.60473633 116.81494141 C-218.57719619 115.74885068 -215.9935991 114.49994827 -213.203125 112.92578125 C-212.21836182 112.372854 -211.23359863 111.81992676 -210.21899414 111.25024414 C-209.1696167 110.65332764 -208.12023926 110.05641113 -207.0390625 109.44140625 C-205.9348999 108.81806396 -204.8307373 108.19472168 -203.69311523 107.55249023 C-194.24754945 102.20369919 -184.86832113 96.74315433 -175.50390625 91.25390625 C-169.19835831 87.55927315 -162.87111814 83.90287944 -156.5390625 80.25390625 C-155.45890869 79.63136963 -154.37875488 79.00883301 -153.26586914 78.36743164 C-151.07609916 77.10563799 -148.88623895 75.84400091 -146.69628906 74.58251953 C-141.26746308 71.45460477 -135.84086969 68.32282177 -130.4140625 65.19140625 C-128.24740667 63.94138746 -126.08074 62.69138747 -123.9140625 61.44140625 C-122.8415625 60.82265625 -121.7690625 60.20390625 -120.6640625 59.56640625 C-108.74739583 52.69140625 -96.83072917 45.81640625 -84.9140625 38.94140625 C-83.84075684 38.32217285 -82.76745117 37.70293945 -81.66162109 37.06494141 C-79.50315752 35.81971141 -77.34462927 34.57459353 -75.18603516 33.32958984 C-69.64331509 30.13254288 -64.10186242 26.9333303 -58.5625 23.73046875 C-36.04861484 10.71757528 -36.04861484 10.71757528 -26.6171875 5.5 C-24.66140855 4.39570042 -22.72690433 3.25100033 -20.8359375 2.0390625 C-13.83078614 -2.38202079 -7.81458655 -2.99529347 0 0 Z " fill="#D8F1CF" transform="translate(237.4140625,1.30859375)"/>
<path d="M0 0 C7.34144244 3.02049267 14.18166484 7.34348774 21 11.375 C23.12464655 12.62299776 25.24965936 13.87037214 27.375 15.1171875 C28.46554687 15.7575293 29.55609375 16.39787109 30.6796875 17.05761719 C36.10471056 20.23125568 41.5524863 23.3651756 47 26.5 C55.41394125 31.34448535 63.80867483 36.22005541 72.1875 41.125 C79.92165348 45.65008718 87.69015653 50.10687979 95.5 54.5 C104.31360317 59.45774574 113.06660258 64.51095096 121.79321289 69.62011719 C128.20839139 73.37508993 134.63682359 77.1058581 141.07836914 80.81542969 C144.36780584 82.70986216 147.65474291 84.60857365 150.94140625 86.5078125 C154.71124665 88.68520499 158.48901868 90.8471401 162.27734375 92.9921875 C163.81000156 93.86960701 165.34256169 94.74719717 166.875 95.625 C167.55232178 96.00237305 168.22964355 96.37974609 168.92749023 96.76855469 C173.97154539 99.67861174 178.01504616 103.40603918 180 109 C179.71050922 110.34353414 179.38155437 111.67965718 179 113 C178.67128906 112.39671875 178.34257812 111.7934375 178.00390625 111.171875 C174.84337021 105.86148924 172.1696849 102.93218988 166.44140625 100.55859375 C159.70873808 99.01815927 155.2220982 100.36659575 149.375 103.5 C148.34101074 104.03379272 148.34101074 104.03379272 147.28613281 104.57836914 C141.56539146 107.57892826 136.0897269 110.92024055 130.671875 114.43359375 C128.20639423 115.87899987 126.7948716 116.68117526 124 117 C121.60009766 116.03466797 121.60009766 116.03466797 118.9140625 114.4921875 C117.91084961 113.92306641 116.90763672 113.35394531 115.87402344 112.76757812 C114.8018457 112.14302734 113.72966797 111.51847656 112.625 110.875 C111.52188477 110.24787109 110.41876953 109.62074219 109.28222656 108.97460938 C103.67651338 105.7718027 98.1299636 102.48720232 92.6328125 99.1015625 C91.64071777 98.49586426 90.64862305 97.89016602 89.62646484 97.26611328 C87.73863902 96.10701194 85.86086217 94.93134885 83.99462891 93.73779297 C83.14562012 93.21588379 82.29661133 92.69397461 81.421875 92.15625 C80.31730957 91.45725586 80.31730957 91.45725586 79.19042969 90.74414062 C76.96830231 89.75857051 76.96830231 89.75857051 74.54321289 90.69238281 C71.96800287 92.01645163 69.41264013 93.34929057 66.88671875 94.765625 C65.89873291 95.31855225 64.91074707 95.87147949 63.89282227 96.44116211 C62.83506592 97.03807861 61.77730957 97.63499512 60.6875 98.25 C59.57882568 98.87334229 58.47015137 99.49668457 57.32788086 100.13891602 C47.86059123 105.47873305 38.46700035 110.94123025 29.08984375 116.4375 C22.7842949 120.13213364 16.45699366 123.78841797 10.125 127.4375 C9.04774658 128.05858643 7.97049316 128.67967285 6.8605957 129.31958008 C1.3591465 132.49051155 -4.14413881 135.65823667 -9.6484375 138.82421875 C-23.48821599 146.78973485 -37.27400167 154.83989191 -51 163 C-47.68495495 165.76833765 -44.39394898 168.03318709 -40.60546875 170.1015625 C-39.57413818 170.66987793 -38.54280762 171.23819336 -37.48022461 171.82373047 C-36.39362549 172.41814941 -35.30702637 173.01256836 -34.1875 173.625 C-24.25110053 179.11694596 -14.53190662 184.83480258 -5 191 C-7.90082515 194.02833395 -10.74107879 196.22126992 -14.31640625 198.36328125 C-19.61459366 203.51395532 -19.51338207 210.52750568 -19.6875 217.4375 C-19.72166016 218.35982422 -19.75582031 219.28214844 -19.79101562 220.23242188 C-19.87282994 222.48815951 -19.94219122 224.74354119 -20 227 C-24.16532417 225.46251688 -27.96584338 223.44365787 -31.8125 221.25 C-32.49989258 220.86078369 -33.18728516 220.47156738 -33.89550781 220.07055664 C-41.07061911 215.99122194 -48.18902239 211.81425489 -55.31225586 207.64526367 C-63.13940438 203.06986841 -70.99894836 198.5529998 -78.875 194.0625 C-90.10040183 187.66143229 -101.30412333 181.22400933 -112.4921875 174.7578125 C-116.45118721 172.469827 -120.41290694 170.18671461 -124.37850952 167.91020203 C-126.76249836 166.54156986 -129.14563764 165.17146192 -131.52874756 163.80130005 C-133.20211643 162.84000745 -134.87667592 161.88078834 -136.55126953 160.92163086 C-137.57075684 160.33518799 -138.59024414 159.74874512 -139.640625 159.14453125 C-140.53297852 158.63253174 -141.42533203 158.12053223 -142.34472656 157.59301758 C-143.2209668 157.06732178 -144.09720703 156.54162598 -145 156 C-146.08611572 155.472854 -147.17223145 154.94570801 -148.29125977 154.40258789 C-151.26437914 151.76550202 -151.41940487 151.41614523 -151.7253418 147.69384766 C-151.74602001 145.93401921 -151.73535347 144.17364143 -151.69921875 142.4140625 C-151.70581009 141.4795224 -151.71240143 140.5449823 -151.7191925 139.5821228 C-151.73668279 136.59569128 -151.71467909 133.61133297 -151.6875 130.625 C-151.67618392 127.64622222 -151.67358285 124.66806812 -151.6879425 121.68930054 C-151.69530189 119.83726382 -151.68721011 117.98508273 -151.6615448 116.13320923 C-151.66449027 110.300686 -152.37221674 105.88705787 -156.46484375 101.390625 C-161.67797303 97.3528697 -164.59302698 95.7302832 -171.25 95.875 C-172.32765625 95.89304687 -173.4053125 95.91109375 -174.515625 95.9296875 C-175.33546875 95.95289063 -176.1553125 95.97609375 -177 96 C-174.07024778 93.7124904 -171.05999635 91.80021208 -167.8359375 89.953125 C-166.80984375 89.36337891 -165.78375 88.77363281 -164.7265625 88.16601562 C-163.62054688 87.53373047 -162.51453125 86.90144531 -161.375 86.25 C-160.20817378 85.58035607 -159.04150991 84.91042916 -157.875 84.24023438 C-155.45212488 82.84851231 -153.02855654 81.45800896 -150.60449219 80.06835938 C-145.06309961 76.89028963 -139.53211327 73.69418455 -134 70.5 C-131.83988434 69.25383588 -129.67972793 68.00774241 -127.51953125 66.76171875 C-123.12040925 64.22384007 -118.72205679 61.68463417 -114.32421875 59.14453125 C-104.35352185 53.38691817 -94.37865951 47.63768046 -84.375 41.9375 C-77.03516557 37.75441046 -69.72922094 33.51635615 -62.4375 29.25 C-53.99966029 24.31858835 -45.54893387 19.41024791 -37.072052 14.54626465 C-35.31036461 13.53466277 -33.550534 12.51982947 -31.79077148 11.50488281 C-8.48919643 -1.83757418 -8.48919643 -1.83757418 0 0 Z M-13.5625 46.125 C-14.75939453 46.79172729 -14.75939453 46.79172729 -15.98046875 47.47192383 C-24.60675357 52.30195085 -33.13306525 57.30120978 -41.6640625 62.296875 C-48.05281992 66.03634589 -54.46116076 69.74125034 -60.875 73.4375 C-62.49438477 74.37082153 -62.49438477 74.37082153 -64.14648438 75.32299805 C-66.3368252 76.58511517 -68.52725502 77.84707785 -70.71777344 79.10888672 C-77.21706294 82.8535681 -83.71356872 86.60307826 -90.20996094 90.3527832 C-95.2500043 93.26147065 -100.29101745 96.16842846 -105.33599854 99.06854248 C-107.11749578 100.09275665 -108.89864322 101.11757651 -110.6796875 102.14257812 C-112.91076625 103.42633375 -115.14249573 104.70895939 -117.375 105.99023438 C-122.98865365 109.22201335 -128.53291438 112.52571298 -134 116 C-130.39864761 119.02496869 -126.72350343 121.43467252 -122.6328125 123.75 C-122.03499969 124.08999023 -121.43718689 124.42998047 -120.82125854 124.78027344 C-118.92479988 125.85762198 -117.02500521 126.928921 -115.125 128 C-113.8578442 128.7183467 -112.59091507 129.43709338 -111.32421875 130.15625 C-108.97941218 131.48686635 -106.63310329 132.81467893 -104.28564453 134.140625 C-102.58038208 135.10564795 -100.87759847 136.08060143 -99.2411499 137.15820312 C-96.29929493 139.03937695 -94.42619322 140.00985999 -90.89746094 139.92822266 C-87.86018249 138.95520845 -85.38536016 137.77158803 -82.640625 136.1484375 C-81.62097656 135.55224609 -80.60132813 134.95605469 -79.55078125 134.34179688 C-78.46152344 133.69275391 -77.37226563 133.04371094 -76.25 132.375 C-75.09302648 131.69497822 -73.93546287 131.01595953 -72.77734375 130.33789062 C-70.37334852 128.92932676 -67.97194227 127.51649359 -65.57226562 126.10058594 C-60.0716512 122.85983022 -54.53396591 119.68333677 -49 116.5 C-46.83315966 115.25030108 -44.6664935 114.00030011 -42.5 112.75 C-38.16666667 110.25 -33.83333333 107.75 -29.5 105.25 C-28.42709717 104.6310083 -27.35419434 104.0120166 -26.2487793 103.37426758 C-24.08621417 102.1266526 -21.92361661 100.87909384 -19.76098633 99.6315918 C-14.28129629 96.47056551 -8.80220642 93.30850691 -3.32421875 90.14453125 C10.09706615 82.39422564 23.53500558 74.67413555 37 67 C33.64287487 64.19535653 30.29328532 61.90421047 26.46484375 59.79296875 C25.40716797 59.20580078 24.34949219 58.61863281 23.25976562 58.01367188 C22.16341797 57.41103516 21.06707031 56.80839844 19.9375 56.1875 C17.7793382 54.994592 15.62178442 53.80058331 13.46484375 52.60546875 C11.87325439 51.7244751 11.87325439 51.7244751 10.24951172 50.82568359 C5.88456802 48.37331327 1.57320373 45.83377368 -2.73217773 43.27856445 C-6.94209192 40.90507747 -9.69171764 43.96373089 -13.5625 46.125 Z " fill="#8DD872" transform="translate(231,56)"/>
<path d="M0 0 C5.64278135 0.08631406 9.79159305 3.06469609 13.703125 6.9375 C17.90285665 11.76477776 18.27040689 15.61884751 18.24525452 21.75907898 C18.24610894 22.51709944 18.24696337 23.2751199 18.24784368 24.05611068 C18.24949459 26.60343029 18.24398346 29.15068447 18.23852539 31.69799805 C18.23824341 33.52107746 18.23840147 35.34415698 18.2389679 37.16723633 C18.23925544 42.12352208 18.23336559 47.07978376 18.22639394 52.03606391 C18.22015331 57.21307234 18.21955604 62.39008129 18.21836853 67.5670929 C18.21525731 77.37367967 18.20704674 87.18025533 18.19701904 96.98683721 C18.18585141 108.14993351 18.18034581 119.31303034 18.17532361 130.47613084 C18.16486396 153.44242673 18.14726856 176.40871274 18.125 199.375 C19.30560249 199.84144928 19.30560249 199.84144928 20.51005554 200.31732178 C22.68138385 201.1955686 24.66442904 202.13145002 26.70703125 203.265625 C27.71443359 203.82382935 27.71443359 203.82382935 28.7421875 204.39331055 C29.82886719 205.00299683 29.82886719 205.00299683 30.9375 205.625 C32.10732422 206.27819214 32.10732422 206.27819214 33.30078125 206.94458008 C41.85853842 211.74745415 50.32117718 216.71293988 58.7890625 221.671875 C65.17781992 225.41134589 71.58616076 229.11625034 78 232.8125 C79.07958984 233.43471436 80.15917969 234.05692871 81.27148438 234.69799805 C83.4618252 235.96011517 85.65225502 237.22207785 87.84277344 238.48388672 C94.34064623 242.22775184 100.83588783 245.97618277 107.33056641 249.72558594 C112.38847279 252.64499691 117.44778742 255.56187167 122.51257324 258.46932983 C124.89423502 259.83674766 127.2750302 261.20567039 129.65576172 262.57470703 C131.32826021 263.53564553 133.00200336 264.49441672 134.67578125 265.453125 C135.69542969 266.03964844 136.71507812 266.62617188 137.765625 267.23046875 C138.65797852 267.74246826 139.55033203 268.25446777 140.46972656 268.78198242 C141.3459668 269.30767822 142.22220703 269.83337402 143.125 270.375 C144.75634888 271.20173218 144.75634888 271.20173218 146.4206543 272.04516602 C149.125 274.375 149.125 274.375 149.81860352 278.19042969 C149.82577113 279.72604617 149.80232724 281.26200538 149.75390625 282.796875 C149.75575424 283.61569153 149.75760223 284.43450806 149.75950623 285.27813721 C149.76375472 287.8947757 149.72964361 290.50872464 149.6875 293.125 C149.65055874 295.72682391 149.62300698 298.32691456 149.62620544 300.92901611 C149.62795659 302.54533629 149.60724436 304.16189775 149.55995178 305.77752686 C149.56217241 311.76934219 151.37842499 315.71764719 155.125 320.375 C157.7506609 322.81401128 157.7506609 322.81401128 160.125 324.375 C156.18039025 323.78104458 153.29616171 322.56671221 149.8359375 320.6015625 C148.82217041 320.02994385 147.80840332 319.4583252 146.76391602 318.86938477 C145.14827759 317.94403931 145.14827759 317.94403931 143.5 317 C142.37843506 316.36441162 141.25687012 315.72882324 140.10131836 315.07397461 C136.77088333 313.18290655 133.4466191 311.28150359 130.125 309.375 C129.26438965 308.88112793 128.4037793 308.38725586 127.51708984 307.87841797 C122.90394203 305.22521074 118.3029805 302.55137526 113.70410156 299.87353516 C108.66399713 296.94508372 103.61237195 294.03656388 98.5625 291.125 C97.46446045 290.49158691 96.3664209 289.85817383 95.23510742 289.20556641 C89.6668002 285.99347095 84.0976179 282.78290202 78.52734375 279.57421875 C68.08477038 273.55700659 57.65290661 267.52306648 47.25 261.4375 C39.03053191 256.62962818 30.78039487 251.87879757 22.50778198 247.16323853 C20.70635079 246.13575197 18.90585191 245.10665281 17.10571289 244.0769043 C16.52672745 243.74573105 15.947742 243.4145578 15.35121155 243.073349 C14.78156174 242.7475032 14.21191193 242.42165741 13.625 242.0859375 C9.67457165 239.82674317 5.71716614 237.58120648 1.75 235.3515625 C0.22889176 234.4848573 -1.29196578 233.61771185 -2.8125 232.75 C-3.4737085 232.38487305 -4.13491699 232.01974609 -4.81616211 231.64355469 C-9.08070435 229.18723279 -12.08140016 226.37077135 -14.875 222.375 C-15.52004187 221.57681949 -15.52004187 221.57681949 -16.17811489 220.76251411 C-21.69432279 212.78288 -20.56790138 203.3837728 -20.50610352 194.10498047 C-20.51124646 192.14458571 -20.51853057 190.18419558 -20.52778625 188.22381592 C-20.54625806 182.91808782 -20.53338916 177.61286398 -20.51369596 172.30715704 C-20.497278 166.74774459 -20.50612652 161.18836328 -20.51121521 155.62893677 C-20.51573188 146.29632536 -20.49989078 136.96391467 -20.47192383 127.63134766 C-20.43985519 116.84700035 -20.4398964 106.06301462 -20.4571386 95.27864158 C-20.47300875 84.89408013 -20.46626815 74.50965104 -20.44920158 64.12509537 C-20.44233538 59.70976353 -20.44335909 55.29453793 -20.45074654 50.87920761 C-20.45841463 45.68011207 -20.44626587 40.48142753 -20.41889763 35.28240204 C-20.41201897 33.37607925 -20.41191025 31.46971804 -20.41911316 29.56339645 C-20.42782182 26.95813864 -20.41182864 24.35414521 -20.3896637 21.74899292 C-20.39790446 20.99733223 -20.40614523 20.24567154 -20.41463572 19.47123325 C-20.31775435 13.28824062 -18.3770494 9.29624092 -14.3828125 4.6328125 C-9.60819979 0.72140661 -5.93891806 0.57473401 0 0 Z " fill="#4EA62E" transform="translate(61.875,150.625)"/>
</svg>
